<?xml version="1.0" encoding="UTF-8"?>
<svg width="28px" height="28px" viewBox="0 0 28 28" version="1.1" xmlns="http://www.w3.org/2000/svg" xmlns:xlink="http://www.w3.org/1999/xlink">
    <title>facebook</title>
    <g id="Phase-1.3---$75" stroke="none" stroke-width="1" fill="none" fill-rule="evenodd">
        <g id="Home" transform="translate(-1262.000000, -37.000000)" fill="#B3181D" fill-rule="nonzero">
            <path d="M1276.94792,65 L1276.94792,54.1536458 L1273.30208,54.1536458 L1273.30208,49.9244792 L1276.94792,49.9244792 L1276.94792,46.8072917 C1276.94792,43.1979167 1279.17188,41.2291667 1282.39844,41.2291667 C1283.92969,41.2291667 1285.26042,41.3385417 1285.64323,41.3932292 L1285.64323,45.1666667 L1283.41927,45.1848958 C1281.65104,45.1848958 1281.32292,46.0052083 1281.32292,47.2265625 L1281.32292,49.9244792 L1285.4974,49.9244792 L1284.95052,54.1536458 L1281.32292,54.1536458 L1281.32292,65 L1284.75,65 C1287.64844,65 1290,62.6484375 1290,59.75 L1290,42.25 C1290,39.3515625 1287.64844,37 1284.75,37 L1267.25,37 C1264.35156,37 1262,39.3515625 1262,42.25 L1262,59.75 C1262,62.6484375 1264.35156,65 1267.25,65 L1276.94792,65 Z" id="facebook"></path>
        </g>
    </g>
</svg>