<?xml version="1.0" encoding="UTF-8"?>
<svg width="28px" height="28px" viewBox="0 0 28 28" version="1.1" xmlns="http://www.w3.org/2000/svg" xmlns:xlink="http://www.w3.org/1999/xlink">
    <title>twitter</title>
    <g id="Phase-1.3---$75" stroke="none" stroke-width="1" fill="none" fill-rule="evenodd">
        <g id="Home" transform="translate(-1300.000000, -37.000000)" fill="#B3181D" fill-rule="nonzero">
            <path d="M1322.75,65 C1325.64844,65 1328,62.6484375 1328,59.75 L1328,42.25 C1328,39.3515625 1325.64844,37 1322.75,37 L1305.25,37 C1302.35156,37 1300,39.3515625 1300,42.25 L1300,59.75 C1300,62.6484375 1302.35156,65 1305.25,65 L1322.75,65 Z M1310.53646,59.1666667 C1308.36719,59.1666667 1306.36198,58.5286458 1304.66667,57.453125 C1304.95833,57.4895833 1305.26823,57.5078125 1305.57812,57.5078125 C1307.38281,57.5078125 1309.02344,56.8880208 1310.33594,55.8671875 C1308.65885,55.8307292 1307.25521,54.71875 1306.76302,53.2057292 C1307,53.2421875 1307.23698,53.2786458 1307.47396,53.2786458 C1307.82031,53.2786458 1308.07552,53.2239583 1308.40365,53.1328125 C1306.65365,52.7864583 1305.25,51.2369792 1305.25,49.3776042 L1305.25,49.3411458 L1305.25,49.3411458 C1305.83333,49.6145833 1306.4349,49.796875 1307.07292,49.8151042 C1306.03385,49.1223958 1305.41406,47.9557292 1305.41406,46.625 C1305.41406,45.9322917 1305.61458,45.2578125 1305.94271,44.6927083 C1307.83854,47.0260417 1310.66406,48.5390625 1313.85417,48.703125 C1313.78125,48.4296875 1313.76302,48.1197917 1313.76302,47.828125 C1313.76302,45.7135417 1315.47656,44 1317.59115,44 C1318.6849,44 1319.6875,44.4557292 1320.38021,45.203125 C1321.25521,45.0390625 1322.07552,44.7109375 1322.82292,44.2734375 C1322.53125,45.1666667 1321.92969,45.9322917 1321.1276,46.40625 C1321.91146,46.296875 1322.64062,46.0963542 1323.33333,45.7864583 C1322.82292,46.5703125 1322.16667,47.2447917 1321.41927,47.7734375 C1321.4375,47.9375 1321.4375,48.1015625 1321.4375,48.265625 C1321.4375,53.3333333 1317.57292,59.1666667 1310.53646,59.1666667 Z" id="twitter"></path>
        </g>
    </g>
</svg>